<?xml version="1.0" encoding="UTF-8"?>
<svg width="512" height="512" viewBox="0 0 512 512" xmlns="http://www.w3.org/2000/svg">
  <defs>
    <linearGradient id="gradientBlue" x1="0%" y1="0%" x2="100%" y2="100%">
      <stop offset="0%" stop-color="#3B82F6" />
      <stop offset="100%" stop-color="#2563EB" />
    </linearGradient>
  </defs>
  <!-- Clean white background with rounded corners -->
  <rect width="512" height="512" rx="128" fill="white"/>
  
  <!-- Minimalist chain link design centered in the icon -->
  <g transform="translate(128, 128) scale(1.3)">
    <!-- First link (top right to bottom left) -->
    <path d="M60,60 
             C35,85 35,115 60,140 
             L100,180 
             C125,205 175,205 200,180 
             C225,155 225,125 200,100 
             L180,80" 
          stroke="url(#gradientBlue)" 
          stroke-width="35" 
          stroke-linecap="round" 
          fill="none"/>
    
    <!-- Second link (bottom right to top left) -->
    <path d="M180,140 
             C205,115 205,85 180,60 
             L140,20 
             C115,-5 65,-5 40,20 
             C15,45 15,75 40,100 
             L60,120" 
          stroke="url(#gradientBlue)" 
          stroke-width="35" 
          stroke-linecap="round" 
          fill="none"/>
  </g>
</svg>