<?xml version="1.0" encoding="UTF-8"?>
<svg width="800" height="500" viewBox="0 0 800 500" fill="none" xmlns="http://www.w3.org/2000/svg">
  <!-- Background -->
  <rect width="800" height="500" rx="8" fill="#F8FAFC"/>
  
  <!-- Header -->
  <rect y="0" width="800" height="60" rx="8" fill="#F1F5F9"/>
  <rect x="20" y="20" width="120" height="20" rx="4" fill="#94A3B8"/>
  <rect x="680" y="20" width="40" height="20" rx="4" fill="#64748B"/>
  <rect x="730" y="20" width="40" height="20" rx="4" fill="#0EA5E9"/>
  
  <!-- Sidebar -->
  <rect x="0" y="60" width="200" height="440" fill="#F1F5F9"/>
  <circle cx="100" cy="110" r="30" fill="#94A3B8"/>
  <rect x="40" y="160" width="120" height="10" rx="2" fill="#64748B"/>
  <rect x="40" y="190" width="120" height="10" rx="2" fill="#94A3B8"/>
  <rect x="40" y="220" width="120" height="10" rx="2" fill="#94A3B8"/>
  <rect x="40" y="250" width="120" height="10" rx="2" fill="#94A3B8"/>
  <rect x="40" y="280" width="120" height="10" rx="2" fill="#94A3B8"/>
  <rect x="40" y="310" width="120" height="10" rx="2" fill="#94A3B8"/>
  <rect x="40" y="340" width="120" height="10" rx="2" fill="#94A3B8"/>
  
  <!-- Main Content Area -->
  <rect x="220" y="80" width="560" height="40" rx="4" fill="#E2E8F0"/>
  <rect x="230" y="90" width="200" height="20" rx="4" fill="#94A3B8"/>
  <rect x="660" y="90" width="100" height="20" rx="10" fill="#0EA5E9"/>
  
  <!-- Cards Row 1 -->
  <rect x="220" y="140" width="265" height="120" rx="8" fill="white" stroke="#E2E8F0" stroke-width="1"/>
  <rect x="240" y="160" width="100" height="15" rx="2" fill="#94A3B8"/>
  <rect x="240" y="185" width="180" height="15" rx="2" fill="#CBD5E1"/>
  <rect x="240" y="220" width="60" height="20" rx="4" fill="#0EA5E9"/>
  <rect x="515" y="140" width="265" height="120" rx="8" fill="white" stroke="#E2E8F0" stroke-width="1"/>
  <rect x="535" y="160" width="100" height="15" rx="2" fill="#94A3B8"/>
  <rect x="535" y="185" width="180" height="15" rx="2" fill="#CBD5E1"/>
  <rect x="535" y="220" width="60" height="20" rx="4" fill="#0EA5E9"/>
  
  <!-- Cards Row 2 -->
  <rect x="220" y="280" width="265" height="120" rx="8" fill="white" stroke="#E2E8F0" stroke-width="1"/>
  <rect x="240" y="300" width="100" height="15" rx="2" fill="#94A3B8"/>
  <rect x="240" y="325" width="180" height="15" rx="2" fill="#CBD5E1"/>
  <rect x="240" y="360" width="60" height="20" rx="4" fill="#0EA5E9"/>
  <rect x="515" y="280" width="265" height="120" rx="8" fill="white" stroke="#E2E8F0" stroke-width="1"/>
  <rect x="535" y="300" width="100" height="15" rx="2" fill="#94A3B8"/>
  <rect x="535" y="325" width="180" height="15" rx="2" fill="#CBD5E1"/>
  <rect x="535" y="360" width="60" height="20" rx="4" fill="#0EA5E9"/>
  
  <!-- Table -->
  <rect x="220" y="420" width="560" height="60" rx="8" fill="white" stroke="#E2E8F0" stroke-width="1"/>
  <rect x="240" y="435" width="100" height="10" rx="2" fill="#94A3B8"/>
  <rect x="370" y="435" width="100" height="10" rx="2" fill="#94A3B8"/>
  <rect x="500" y="435" width="100" height="10" rx="2" fill="#94A3B8"/>
  <rect x="630" y="435" width="100" height="10" rx="2" fill="#94A3B8"/>
  <rect x="740" y="435" width="20" height="10" rx="2" fill="#94A3B8"/>
  <rect x="240" y="455" width="500" height="1" rx="0.5" fill="#E2E8F0"/>
  
  <!-- Text overlay -->
  <text x="400" y="250" text-anchor="middle" font-family="Arial" font-size="24" font-weight="bold" fill="#1E293B">SaaSxLinks Dashboard</text>
</svg>