<?xml version="1.0" encoding="UTF-8"?>
<svg xmlns="http://www.w3.org/2000/svg" viewBox="0 0 200 200">
  <defs>
    <linearGradient id="linkGradient" x1="0%" y1="0%" x2="100%" y2="0%">
      <stop offset="0%" style="stop-color:#0070f3;stop-opacity:1" />
      <stop offset="100%" style="stop-color:#4a6cf7;stop-opacity:1" />
    </linearGradient>
  </defs>
  <circle cx="100" cy="100" r="95" fill="url(#linkGradient)"/>
  <g transform="translate(40, 40)">
    <path d="M80,57.1 C80,50.7 74.8,45.6 68.5,45.6 L58.2,45.6 L58.2,40.4 L68.4,40.4 C77.7,40.4 85.2,47.9 85.2,57.1 C85.2,66.3 77.7,73.8 68.4,73.8 L58.2,73.8 L58.2,68.6 L68.4,68.6 C74.8,68.6 80,63.4 80,57.1 Z" fill="#FFFFFF"/>
    <path d="M39.4,57.1 L68.2,57.1 L68.2,51.9 L39.4,51.9 L39.4,57.1 Z" fill="#FFFFFF"/>
    <path d="M49.2,73.6 L39,73.6 C29.7,73.6 22.3,66.1 22.3,56.9 C22.3,47.7 29.8,40.2 39,40.2 L49.2,40.2 L49.2,45.4 L39,45.4 C32.6,45.4 27.5,50.6 27.5,56.9 C27.5,63.3 32.7,68.4 39,68.4 L49.2,68.4 L49.2,73.6 Z" fill="#FFFFFF"/>
  </g>
  <path d="M100,10 C49.3,10 8.5,50.8 8.5,101.5 C8.5,152.2 49.3,193 100,193 C150.7,193 191.5,152.2 191.5,101.5 C191.5,50.8 150.7,10 100,10 Z M100,180 C56.5,180 21.5,145 21.5,101.5 C21.5,58 56.5,23 100,23 C143.5,23 178.5,58 178.5,101.5 C178.5,145 143.5,180 100,180 Z" fill="#FFFFFF" opacity="0.1"/>
</svg>