<?xml version="1.0" encoding="UTF-8"?>
<svg width="180" height="180" viewBox="0 0 180 180" xmlns="http://www.w3.org/2000/svg">
  <defs>
    <linearGradient id="gradient" x1="0%" y1="0%" x2="100%" y2="100%">
      <stop offset="0%" stop-color="#3B82F6" />
      <stop offset="100%" stop-color="#2563EB" />
    </linearGradient>
  </defs>
  <rect width="180" height="180" rx="40" fill="white"/>
  <g transform="translate(22, 22) scale(0.35)">
    <!-- S letter -->
    <path d="M60,100 C60,70 90,60 120,60 C150,60 180,70 180,100 C180,130 150,140 120,150 C90,160 60,170 60,200 C60,230 90,240 120,240 C150,240 180,230 180,200" 
          stroke="url(#gradient)" 
          stroke-width="40" 
          stroke-linecap="round" 
          fill="none"/>
    <!-- Link icon in the middle -->
    <g transform="translate(192, 150) scale(0.6)">
      <path d="M30,120 L90,60 C110,40 140,40 160,60 C180,80 180,110 160,130 L130,160" 
            stroke="url(#gradient)" 
            stroke-width="35" 
            stroke-linecap="round" 
            fill="none"/>
      <path d="M160,60 L220,120 C240,140 240,170 220,190 C200,210 170,210 150,190 L120,160" 
            stroke="url(#gradient)" 
            stroke-width="35" 
            stroke-linecap="round" 
            fill="none"/>
    </g>
    <!-- L letter -->
    <path d="M330,60 L330,210 L390,210" 
          stroke="url(#gradient)" 
          stroke-width="40" 
          stroke-linecap="round" 
          fill="none"/>
  </g>
</svg>